<?xml version="1.0" standalone="no"?>
<!DOCTYPE svg PUBLIC "-//W3C//DTD SVG 20010904//EN"
 "http://www.w3.org/TR/2001/REC-SVG-20010904/DTD/svg10.dtd">
<svg version="1.0" xmlns="http://www.w3.org/2000/svg"
 width="300.000000pt" height="300.000000pt" viewBox="0 0 300.000000 300.000000"
 preserveAspectRatio="xMidYMid meet">
<metadata>
Created by potrace 1.10, written by Peter Selinger 2001-2011
</metadata>
<g transform="translate(0.000000,300.000000) scale(0.100000,-0.100000)"
fill="#000000" stroke="none">
<path d="M450 1500 l0 -290 1050 0 1050 0 0 290 0 290 -1050 0 -1050 0 0 -290z
m2080 0 l0 -270 -1030 0 -1030 0 0 270 0 270 1030 0 1030 0 0 -270z"/>
<path d="M510 1500 l0 -230 685 0 685 0 0 230 0 230 -685 0 -685 0 0 -230z
m1332 192 c4 -4 9 -23 11 -42 2 -20 6 -41 10 -47 10 -15 -45 -27 -89 -19 -30
6 -34 4 -34 -14 0 -15 6 -20 25 -20 24 0 25 -3 25 -60 0 -54 2 -60 21 -60 20
0 21 4 17 60 -4 56 -3 60 17 60 20 0 20 -3 12 -112 -4 -62 -10 -119 -12 -125
-3 -10 -142 -13 -649 -13 -355 0 -647 3 -650 8 -2 4 -6 54 -7 112 -2 58 -7
111 -12 118 -7 9 -3 12 17 12 25 0 26 -2 26 -60 0 -47 3 -60 15 -60 12 0 15
13 15 60 0 57 1 60 25 60 19 0 25 5 25 21 0 16 -4 19 -21 14 -33 -11 -112 4
-100 18 5 7 11 30 13 52 l3 40 510 5 c545 5 776 3 787 -8z"/>
<path d="M700 1585 c-1 0 -2 -35 -3 -78 l-2 -77 53 0 c39 0 52 4 52 15 0 10
-11 15 -35 15 -27 0 -35 4 -35 18 0 15 6 18 30 14 23 -3 30 0 30 12 0 11 -9
16 -30 16 -24 0 -30 4 -30 21 0 19 4 21 35 16 29 -5 35 -3 35 13 0 15 -8 18
-50 17 -27 -1 -50 -2 -50 -2z"/>
<path d="M840 1584 c0 -3 12 -21 26 -40 l27 -34 -27 -40 c-24 -37 -25 -40 -7
-40 11 0 28 12 39 27 l20 28 13 -28 c8 -19 20 -27 37 -27 l24 0 -26 34 c-14
19 -26 38 -26 43 0 5 11 25 25 46 25 36 25 37 5 37 -12 0 -28 -13 -39 -31
l-19 -31 -16 31 c-10 19 -24 31 -36 31 -11 0 -20 -3 -20 -6z"/>
<path d="M1020 1568 c0 -13 8 -18 25 -18 24 0 25 -3 25 -60 0 -51 3 -60 18
-60 16 0 18 7 14 59 -4 59 -4 59 24 63 17 2 29 9 29 18 0 11 -16 14 -67 15
-59 0 -68 -2 -68 -17z"/>
<path d="M1200 1509 c0 -64 3 -79 15 -79 9 0 15 9 15 25 0 16 6 25 15 25 9 0
21 -11 27 -25 6 -14 19 -25 30 -25 22 0 22 4 3 34 -14 21 -14 24 0 29 18 8 20
60 3 74 -7 6 -34 13 -60 15 l-48 6 0 -79z m74 45 c21 -8 21 -40 0 -48 -33 -13
-44 -6 -44 24 0 30 11 37 44 24z"/>
<path d="M1413 1573 c-3 -10 -17 -45 -29 -77 -29 -71 -28 -66 -4 -66 11 0 20
7 20 15 0 10 10 15 34 15 21 0 36 -6 40 -15 3 -8 14 -15 25 -15 19 0 19 1 -3
53 -13 28 -28 64 -34 80 -13 30 -39 36 -49 10z m42 -70 c5 -20 3 -23 -19 -23
-24 0 -24 2 -14 31 11 32 21 29 33 -8z"/>
<path d="M1576 1568 c-24 -22 -30 -40 -27 -80 4 -59 102 -80 141 -30 19 24 20
27 5 30 -9 2 -24 -3 -34 -12 -21 -19 -52 -21 -69 -4 -19 19 -14 55 9 71 21 15
59 12 59 -4 0 -5 9 -9 20 -9 27 0 25 15 -6 39 -34 27 -67 27 -98 -1z"/>
<path d="M2005 1555 c-52 -51 -15 -135 60 -135 46 0 85 36 85 80 0 44 -39 80
-85 80 -25 0 -44 -8 -60 -25z m95 -35 c20 -38 -12 -70 -54 -54 -16 6 -22 54
-9 67 14 14 53 6 63 -13z"/>
<path d="M2191 1554 c-28 -36 -27 -79 4 -109 14 -15 36 -25 53 -25 33 0 82 34
82 56 0 19 -34 18 -50 -1 -30 -36 -83 3 -60 45 11 21 44 27 55 10 7 -12 55
-14 55 -2 0 5 -10 18 -23 30 -34 32 -89 30 -116 -4z"/>
<path d="M2360 1500 c0 -73 2 -80 20 -80 15 0 20 7 20 25 0 14 5 25 10 25 6 0
16 -11 22 -25 7 -16 19 -25 35 -25 27 0 28 3 8 34 -14 21 -14 24 0 36 8 7 15
22 15 35 0 35 -31 55 -83 55 l-47 0 0 -80z m85 20 c0 -8 -10 -16 -22 -18 -18
-3 -23 2 -23 18 0 16 5 21 23 18 12 -2 22 -10 22 -18z"/>
</g>
</svg>
