<?xml version="1.0" encoding="UTF-8"?>
<svg version="1.1" xmlns="http://www.w3.org/2000/svg"  width="100.000000pt" height="50.000000pt" viewBox="0 0 400.000000 86.000000"
 preserveAspectRatio="xMidYMid meet">
<path d="M0 0 C114.51 0 229.02 0 347 0 C347 32.67 347 65.34 347 99 C232.49 99 117.98 99 0 99 C0 66.33 0 33.66 0 0 Z " fill="#FD3031" transform="translate(0,0)"/>
<path d="M0 0 C114.51 0 229.02 0 347 0 C347 32.67 347 65.34 347 99 C232.49 99 117.98 99 0 99 C0 66.33 0 33.66 0 0 Z M10 11 C10 36.74 10 62.48 10 89 C85.57 89 161.14 89 239 89 C239 63.26 239 37.52 239 11 C163.43 11 87.86 11 10 11 Z " fill="#FDFDFD" transform="translate(0,0)"/>
<path d="M0 0 C114.51 0 229.02 0 347 0 C347 32.67 347 65.34 347 99 C232.49 99 117.98 99 0 99 C0 66.33 0 33.66 0 0 Z M3 5 C3 34.7 3 64.4 3 95 C116.19 95 229.38 95 346 95 C346 65.3 346 35.6 346 5 C232.81 5 119.62 5 3 5 Z " fill="#515151" transform="translate(0,0)"/>
<path d="M0 0 C4.32344973 1.99426731 7.34584625 4.01876938 10 8 C10.71608932 13.30405693 10.62242963 17.73291112 8.25 22.5625 C5.36652133 25.68626856 3.42150347 26.81191806 -0.8046875 27.37109375 C-10.11853623 27.57253832 -10.11853623 27.57253832 -13.625 24.8125 C-16.88524374 20.95168504 -17.82972766 18.56082979 -18.375 13.5625 C-17.78934795 7.99880552 -15.40684189 5.21499981 -11.25 1.625 C-7.34771893 -0.32614054 -4.23161238 -0.93158631 0 0 Z " fill="#090909" transform="translate(273,36)"/>
<path d="M0 0 C2.701875 -0.103125 5.40375 -0.20625 8.1875 -0.3125 C9.02949951 -0.35802002 9.87149902 -0.40354004 10.73901367 -0.45043945 C14.91533862 -0.52738351 16.56109638 -0.32931967 20.01953125 2.265625 C22.97441115 6.34534084 22.62675196 8.06432831 22 13 C21.00612666 14.33790641 20.0073108 15.67218122 19 17 C19.68931667 19.55711372 19.68931667 19.55711372 21 22 C21.35858516 23.32676508 21.7018576 24.65835921 22 26 C19.36 26 16.72 26 14 26 C12.58398438 23.31445312 12.58398438 23.31445312 11.16796875 20.62890625 C10.00980201 18.67732013 10.00980201 18.67732013 7 18 C7 20.64 7 23.28 7 26 C4.69 26 2.38 26 0 26 C0 17.42 0 8.84 0 0 Z " fill="#040404" transform="translate(318,37)"/>
<path d="M0 0 C3.5578125 -0.12375 3.5578125 -0.12375 7.1875 -0.25 C7.92508545 -0.28641602 8.6626709 -0.32283203 9.42260742 -0.36035156 C12.92565317 -0.41901161 14.92494078 -0.04386706 17.9609375 1.73046875 C20.25885269 4.28810999 20.61426193 5.1926193 20.4375 8.5625 C20.41558594 9.32691406 20.39367187 10.09132813 20.37109375 10.87890625 C20 13 20 13 18 16 C17.34 16 16.68 16 16 16 C17.65 19.3 19.3 22.6 21 26 C18.69 26 16.38 26 14 26 C13.4225 24.865625 12.845 23.73125 12.25 22.5625 C10.64507365 19.62689703 10.64507365 19.62689703 7.75 18.0625 C7.1725 18.041875 6.595 18.02125 6 18 C6 20.64 6 23.28 6 26 C4.02 26 2.04 26 0 26 C0 17.42 0 8.84 0 0 Z " fill="#140D4B" transform="translate(125,36)"/>
<path d="M0 0 C4.65156533 1.7329361 7.29196906 3.83379855 10 8 C10 8.99 10 9.98 10 11 C6.6875 11.1875 6.6875 11.1875 3 11 C1.375 9.5 1.375 9.5 0 8 C-3.12414314 7.68758569 -4.99825776 7.99941925 -8 9 C-8.04125 10.27875 -8.0825 11.5575 -8.125 12.875 C-8.15980469 13.95394531 -8.15980469 13.95394531 -8.1953125 15.0546875 C-8.18331689 17.23863645 -8.18331689 17.23863645 -6 19 C-2.5 19.33333333 -2.5 19.33333333 1 19 C1.66 18.34 2.32 17.68 3 17 C6.625 16.875 6.625 16.875 10 17 C9.79629204 20.56488931 8.98404463 22.01940518 6.6875 24.8125 C2.76668464 27.80295239 -1.37372148 27.69562003 -6.1484375 27.48828125 C-10.55017309 26.7345594 -12.12658933 25.40272317 -15 22 C-17.28466838 18.05375462 -17.47409741 14.50392543 -17 10 C-13.30090764 2.74408806 -8.25966171 -1.03245771 0 0 Z " fill="#090909" transform="translate(303,36)"/>
<path d="M0 0 C2.31 0 4.62 0 7 0 C10.3 8.58 13.6 17.16 17 26 C14.69 26 12.38 26 10 26 C9.505 23.525 9.505 23.525 9 21 C5.37 21 1.74 21 -2 21 C-2.33 22.65 -2.66 24.3 -3 26 C-5.31 26 -7.62 26 -10 26 C-6.75992966 17.29501103 -3.51409615 8.59919998 0 0 Z " fill="#130D4B" transform="translate(161,36)"/>
<path d="M0 0 C3.04995272 1.96552508 4.83931852 3.77683619 6.8125 6.8125 C6.8125 7.8025 6.8125 8.7925 6.8125 9.8125 C4.0625 10.0625 4.0625 10.0625 0.8125 9.8125 C-0.52083333 8.47916667 -1.85416667 7.14583333 -3.1875 5.8125 C-6.66232175 5.45792635 -8.87127419 5.7070914 -12.1875 6.8125 C-12.1875 10.7725 -12.1875 14.7325 -12.1875 18.8125 C-7.69885177 19.61725007 -7.69885177 19.61725007 -3.1875 19.8125 C-0.9789234 17.93741838 -0.9789234 17.93741838 0.8125 15.8125 C4.0625 15.5625 4.0625 15.5625 6.8125 15.8125 C6.51429167 19.39099992 6.07004642 20.57476484 3.375 23.0625 C-1.63723169 26.4854875 -6.20871827 26.58721538 -12.1875 25.8125 C-15.36602316 24.16801311 -17.56551764 22.05646473 -19.1875 18.8125 C-20.21782087 8.98029511 -20.21782087 8.98029511 -18.2109375 4.7578125 C-13.20183424 -1.41905717 -7.47539971 -2.78495283 0 0 Z " fill="#180E4B" transform="translate(202.1875,36.1875)"/>
<path d="M0 0 C2.6875 -0.4375 2.6875 -0.4375 6 0 C8.04775301 2.11124923 9.53480226 4.45859507 11 7 C11.27972656 6.4946875 11.55945313 5.989375 11.84765625 5.46875 C13.1110842 3.42126548 14.28545186 1.69332848 16 0 C19.8125 -0.4375 19.8125 -0.4375 23 0 C22.57847656 0.77085938 22.15695313 1.54171875 21.72265625 2.3359375 C21.17480469 3.33882812 20.62695312 4.34171875 20.0625 5.375 C19.24458984 6.87160156 19.24458984 6.87160156 18.41015625 8.3984375 C17.5850241 9.92070346 16.77435609 11.45128783 16 13 C16.5775 13.85464844 17.155 14.70929687 17.75 15.58984375 C18.50012058 16.70564811 19.25011404 17.82153795 20 18.9375 C20.3815625 19.50146484 20.763125 20.06542969 21.15625 20.64648438 C24 24.88671875 24 24.88671875 24 26 C20.8125 26.4375 20.8125 26.4375 17 26 C15.35047063 24.33337706 14.23551361 22.64361515 13.04296875 20.62890625 C12.0873756 18.83031155 12.0873756 18.83031155 10 18 C9.71125 18.763125 9.4225 19.52625 9.125 20.3125 C8 23 8 23 6 26 C2.375 26.1875 2.375 26.1875 -1 26 C-0.57847656 25.25234375 -0.15695313 24.5046875 0.27734375 23.734375 C0.82519531 22.74953125 1.37304688 21.7646875 1.9375 20.75 C2.48277344 19.77546875 3.02804688 18.8009375 3.58984375 17.796875 C5.31474522 14.53227958 5.31474522 14.53227958 6 11 C4.81473209 8.63125401 4.81473209 8.63125401 3.0625 6.375 C0 2.17539863 0 2.17539863 0 0 Z " fill="#140D4B" transform="translate(66,36)"/>
<path d="M0 0 C5.61 0 11.22 0 17 0 C17 1.65 17 3.3 17 5 C13.37 5 9.74 5 6 5 C6 6.65 6 8.3 6 10 C9.3 10 12.6 10 16 10 C16 11.65 16 13.3 16 15 C12.7 15 9.4 15 6 15 C6 16.98 6 18.96 6 21 C9.96 21 13.92 21 18 21 C18 22.65 18 24.3 18 26 C12.06 26 6.12 26 0 26 C0 17.42 0 8.84 0 0 Z " fill="#120D4C" transform="translate(41,36)"/>
<path d="M0 0 C7.59 0 15.18 0 23 0 C23 1.65 23 3.3 23 5 C20.03 5 17.06 5 14 5 C14 11.93 14 18.86 14 26 C12.02 26 10.04 26 8 26 C8 19.4 8 12.8 8 6 C5.36 6 2.72 6 0 6 C0 4.02 0 2.04 0 0 Z " fill="#1B0E4B" transform="translate(215,36)"/>
<path d="M0 0 C7.26 0 14.52 0 22 0 C22 1.98 22 3.96 22 6 C19.36 6 16.72 6 14 6 C14 12.6 14 19.2 14 26 C12.02 26 10.04 26 8 26 C8 19.07 8 12.14 8 5 C5.36 5 2.72 5 0 5 C0 3.35 0 1.7 0 0 Z " fill="#180D4B" transform="translate(12,36)"/>
<path d="M0 0 C7.26 0 14.52 0 22 0 C22 1.65 22 3.3 22 5 C19.36 5 16.72 5 14 5 C14 11.93 14 18.86 14 26 C12.02 26 10.04 26 8 26 C8 19.07 8 12.14 8 5 C5.36 5 2.72 5 0 5 C0 3.35 0 1.7 0 0 Z " fill="#0F0C4C" transform="translate(95,36)"/>
<path d="M0 0 C3.37013879 0.67402776 4.51677007 1.7087875 6.5 4.5 C6.95319325 7.67235276 7.02990283 9.56487736 5.4375 12.375 C2.3930714 14.14273274 -0.0631012 13.86823916 -3.5 13.5 C-5.4375 12.375 -5.4375 12.375 -6.5 10.5 C-7.04624158 6.83237794 -6.97898298 5.1741242 -4.8125 2.125 C-2.5 0.5 -2.5 0.5 0 0 Z " fill="#F2F2F2" transform="translate(269.5,42.5)"/>
<path d="M0 0 C2.33294775 -0.04241723 4.66702567 -0.04092937 7 0 C8 1 8 1 8.0625 4.0625 C8.041875 5.031875 8.02125 6.00125 8 7 C5.29120665 8.35439668 2.99066732 8.06501451 0 8 C0 5.36 0 2.72 0 0 Z " fill="#F52F32" transform="translate(131,41)"/>
<path d="M0 0 C1.99954746 -0.04254356 4.00041636 -0.04080783 6 0 C7 1 7 1 7.0625 3.5625 C7.041875 4.366875 7.02125 5.17125 7 6 C4.69 6.33 2.38 6.66 0 7 C0 4.69 0 2.38 0 0 Z " fill="#E5E5E5" transform="translate(325,43)"/>
<path d="M0 0 C2.50298434 2.93828597 3.46930939 5.17902761 4 9 C1.69 9 -0.62 9 -3 9 C-2.44271087 5.65626525 -1.64826111 2.96687001 0 0 Z " fill="#E02C34" transform="translate(164,44)"/>
</svg>
