<?xml version="1.0" standalone="no"?>
<!DOCTYPE svg PUBLIC "-//W3C//DTD SVG 20010904//EN"
 "http://www.w3.org/TR/2001/REC-SVG-20010904/DTD/svg10.dtd">
<svg version="1.0" xmlns="http://www.w3.org/2000/svg"
 width="300.000000pt" height="90.000000pt" viewBox="0 0 300.000000 86.000000"
 preserveAspectRatio="xMidYMid meet">
<metadata>
Created by potrace 1.10, written by Peter Selinger 2001-2011
</metadata>
<g transform="translate(0.000000,86.000000) scale(0.100000,-0.100000)"
fill="#000000" stroke="none">
<path d="M10 425 l0 -415 1495 0 1495 0 0 415 0 415 -1495 0 -1495 0 0 -415z
m2980 3 l0 -393 -1480 0 -1480 0 0 393 0 392 1480 0 1480 0 0 -392z"/>
<path d="M90 428 l0 -338 990 0 990 0 -1 335 -1 335 -989 2 -989 3 0 -337z
m1941 285 c1 -10 3 -44 4 -76 2 -33 6 -65 9 -73 4 -11 -12 -14 -89 -14 l-95 0
0 -26 c0 -23 3 -25 37 -22 l37 3 -3 -93 -3 -92 26 0 26 0 0 94 0 93 31 -6 31
-6 -2 -125 c-2 -119 -5 -194 -8 -232 -2 -17 -55 -18 -952 -18 -752 0 -951 3
-955 13 -2 6 -6 91 -8 189 l-4 176 28 4 29 5 0 -94 c0 -93 0 -93 25 -93 25 0
25 1 25 90 l0 90 35 0 c31 0 35 3 35 25 0 25 0 25 -96 25 -74 0 -93 3 -87 13
7 12 10 41 12 125 l1 42 955 0 c902 0 955 -1 956 -17z"/>
<path d="M354 435 l1 -115 78 0 c75 0 78 1 75 22 -3 20 -8 22 -55 19 l-53 -2
0 31 c0 32 0 32 45 28 41 -3 45 -1 45 19 0 21 -5 23 -45 23 -42 0 -45 2 -45
26 0 25 2 26 50 22 46 -3 50 -1 50 20 0 21 -4 22 -73 22 l-73 0 0 -115z"/>
<path d="M599 494 l41 -57 -34 -46 c-51 -71 -51 -71 -17 -71 26 0 34 7 51 40
11 22 24 40 28 40 4 0 16 -17 27 -38 16 -30 26 -38 54 -40 l33 -3 -42 60 -42
60 36 51 c20 27 36 52 36 55 0 3 -12 5 -27 5 -22 0 -33 -9 -51 -41 l-24 -41
-25 41 c-20 33 -30 41 -54 41 l-30 0 40 -56z"/>
<path d="M820 524 c0 -24 3 -26 35 -22 l35 4 0 -93 c0 -93 0 -93 25 -93 25 0
25 0 25 93 l0 93 40 -4 c37 -4 40 -2 40 22 l0 26 -100 0 -100 0 0 -26z"/>
<path d="M1080 435 l0 -115 26 0 c24 0 26 3 22 35 -4 31 -1 35 19 35 17 0 28
-10 40 -35 13 -28 23 -35 45 -35 33 0 34 6 8 40 -24 30 -24 37 -5 56 36 37 25
107 -20 124 -15 6 -51 10 -81 10 l-54 0 0 -115z m111 65 c42 -23 8 -75 -44
-68 -17 2 -22 10 -23 33 0 17 1 33 3 38 6 10 41 9 64 -3z"/>
<path d="M1358 452 c-20 -53 -40 -105 -44 -114 -5 -14 -1 -18 20 -18 18 0 29
7 35 23 8 20 14 22 55 19 34 -3 47 -9 51 -23 4 -13 16 -19 34 -19 l28 0 -46
115 c-41 103 -48 115 -71 115 -22 0 -29 -10 -62 -98z m88 -19 l13 -33 -35 0
c-38 0 -38 2 -11 70 7 18 11 21 14 10 3 -8 12 -30 19 -47z"/>
<path d="M1614 516 c-29 -29 -34 -41 -34 -81 0 -40 5 -52 34 -81 49 -49 113
-49 162 0 19 19 34 39 34 45 0 20 -41 12 -72 -14 -36 -30 -48 -31 -82 -4 -18
14 -26 30 -26 52 0 38 7 50 38 66 27 14 76 0 86 -25 6 -16 56 -19 56 -3 0 6
-15 26 -34 45 -29 29 -41 34 -81 34 -40 0 -52 -5 -81 -34z"/>
<path d="M2285 535 c-21 -8 -47 -24 -56 -37 -56 -74 0 -188 92 -188 83 0 136
56 126 132 -11 79 -83 120 -162 93z m80 -70 c29 -28 31 -42 9 -73 -18 -26 -60
-29 -86 -5 -38 34 -11 97 45 102 4 1 19 -10 32 -24z"/>
<path d="M2553 539 c-45 -13 -73 -53 -73 -105 0 -81 41 -124 119 -124 31 0 49
7 76 31 46 41 47 67 3 61 -18 -3 -38 -11 -46 -18 -19 -20 -56 -17 -75 4 -47
52 23 132 72 83 22 -22 81 -29 81 -11 0 21 -32 58 -58 68 -47 18 -66 20 -99
11z"/>
<path d="M2750 425 l0 -115 30 0 c28 0 30 3 30 35 0 24 5 35 15 35 8 0 21 -16
29 -35 13 -31 19 -35 50 -35 41 0 43 4 17 44 -19 29 -19 30 0 54 26 34 24 78
-6 107 -21 22 -33 25 -95 25 l-70 0 0 -115z m118 48 c14 -27 3 -43 -29 -43
-26 0 -29 4 -29 30 0 25 4 30 25 30 13 0 28 -8 33 -17z"/>
</g>
</svg>
